ply
format ascii 1.0
comment : MagicaVoxel @ Ephtracy
element vertex 40
property float x
property float y
property float z
property uchar red
property uchar green
property uchar blue
element face 10
property list uchar int vertex_index
end_header
5.7 -3.9 0.1 0 102 204
5.7 -3.9 0.2 0 102 204
5.7 -3.8 0.2 0 102 204
5.7 -3.8 0.1 0 102 204
5.7 -3.9 0.2 153 102 0
5.7 -3.9 0.3 153 102 0
5.7 -3.8 0.3 153 102 0
5.7 -3.8 0.2 153 102 0
5.8 -3.9 0.1 0 102 204
5.8 -3.8 0.1 0 102 204
5.8 -3.8 0.2 0 102 204
5.8 -3.9 0.2 0 102 204
5.8 -3.9 0.2 153 102 0
5.8 -3.8 0.2 153 102 0
5.8 -3.8 0.3 153 102 0
5.8 -3.9 0.3 153 102 0
5.7 -3.9 0.1 0 102 204
5.8 -3.9 0.1 0 102 204
5.8 -3.9 0.2 0 102 204
5.7 -3.9 0.2 0 102 204
5.7 -3.9 0.2 153 102 0
5.8 -3.9 0.2 153 102 0
5.8 -3.9 0.3 153 102 0
5.7 -3.9 0.3 153 102 0
5.7 -3.8 0.1 0 102 204
5.7 -3.8 0.2 0 102 204
5.8 -3.8 0.2 0 102 204
5.8 -3.8 0.1 0 102 204
5.7 -3.8 0.2 153 102 0
5.7 -3.8 0.3 153 102 0
5.8 -3.8 0.3 153 102 0
5.8 -3.8 0.2 153 102 0
5.7 -3.9 0.1 0 102 204
5.7 -3.8 0.1 0 102 204
5.8 -3.8 0.1 0 102 204
5.8 -3.9 0.1 0 102 204
5.7 -3.9 0.3 153 102 0
5.8 -3.9 0.3 153 102 0
5.8 -3.8 0.3 153 102 0
5.7 -3.8 0.3 153 102 0
4 0 1 2 3
4 4 5 6 7
4 8 9 10 11
4 12 13 14 15
4 16 17 18 19
4 20 21 22 23
4 24 25 26 27
4 28 29 30 31
4 32 33 34 35
4 36 37 38 39
